<?xml version="1.0" standalone="no"?>
<!DOCTYPE svg PUBLIC "-//W3C//DTD SVG 20010904//EN"
 "http://www.w3.org/TR/2001/REC-SVG-20010904/DTD/svg10.dtd">
<svg version="1.0" xmlns="http://www.w3.org/2000/svg"
 width="529.000000pt" height="529.000000pt" viewBox="0 0 529.000000 529.000000"
 preserveAspectRatio="xMidYMid meet">
<metadata>
Created by potrace 1.14, written by Peter Selinger 2001-2017
</metadata>
<g transform="translate(0.000000,529.000000) scale(0.100000,-0.100000)"
fill="#000000" stroke="none">
<path d="M570 5271 c-242 -68 -405 -236 -469 -481 -19 -73 -20 -124 -20 -2135
0 -1375 3 -2078 10 -2115 42 -221 205 -417 412 -495 34 -12 65 -23 70 -24 4
-1 8 -1 10 -2 35 -10 403 -12 2047 -12 1081 -1 1990 2 2021 6 98 11 201 56
295 128 103 79 174 183 227 333 l22 61 2 2080 c1 1366 -1 2099 -8 2135 -43
237 -209 429 -439 512 l-65 23 -2025 2 c-1932 2 -2028 1 -2090 -16z"/>
</g>
</svg>
